<svg width="37" height="40" viewBox="0 0 37 40" fill="none" xmlns="http://www.w3.org/2000/svg">
<path d="M1 6.5C0.447715 6.5 0 6.94772 0 7.5C0 8.05228 0.447715 8.5 1 8.5V6.5ZM36.7071 8.20711C37.0976 7.81658 37.0976 7.18342 36.7071 6.79289L30.3431 0.428932C29.9526 0.0384078 29.3195 0.0384078 28.9289 0.428932C28.5384 0.819457 28.5384 1.45262 28.9289 1.84315L34.5858 7.5L28.9289 13.1569C28.5384 13.5474 28.5384 14.1805 28.9289 14.5711C29.3195 14.9616 29.9526 14.9616 30.3431 14.5711L36.7071 8.20711ZM1 8.5H36V6.5H1V8.5Z" fill="url(#paint0_linear_124_295)"/>
<path d="M36 31.5C36.5523 31.5 37 31.9477 37 32.5C37 33.0523 36.5523 33.5 36 33.5V31.5ZM0.292892 33.2071C-0.0976295 32.8166 -0.0976295 32.1834 0.292892 31.7929L6.65685 25.4289C7.04738 25.0384 7.68054 25.0384 8.07107 25.4289C8.46159 25.8195 8.46159 26.4526 8.07107 26.8431L2.41422 32.5L8.07107 38.1569C8.46159 38.5474 8.46159 39.1805 8.07107 39.5711C7.68054 39.9616 7.04738 39.9616 6.65685 39.5711L0.292892 33.2071ZM36 33.5H1V31.5H36V33.5Z" fill="white"/>
<defs>
<linearGradient id="paint0_linear_124_295" x1="1.00001" y1="1.99994" x2="37.5" y2="7.99997" gradientUnits="userSpaceOnUse">
<stop stop-color="#5F37B3"/>
<stop offset="1" stop-color="#9842DA"/>
</linearGradient>
</defs>
</svg>
