<svg width="30" height="30" viewBox="0 0 30 30" fill="none" xmlns="http://www.w3.org/2000/svg">
<path fill-rule="evenodd" clip-rule="evenodd" d="M15 30C11.0218 30 7.20645 28.4196 4.3934 25.6066C1.58036 22.7936 7.50044e-06 18.9782 7.50044e-06 15C-0.00385489 11.1352 1.48414 7.41811 4.15377 4.62357C6.8234 1.82903 10.4686 0.172741 14.3295 0H15C16.9698 0 18.9204 0.387988 20.7403 1.14181C22.5601 1.89563 24.2137 3.00052 25.6066 4.3934C26.9995 5.78628 28.1044 7.43986 28.8582 9.25975C29.612 11.0796 30 13.0302 30 15C30 18.9782 28.4196 22.7936 25.6066 25.6066C22.7936 28.4196 18.9782 30 15 30ZM5.15152 24.8636C6.77291 26.4866 8.76952 27.6847 10.9645 28.3517C13.1595 29.0188 15.4851 29.1343 17.7354 28.6879C19.9856 28.2416 22.0911 27.2472 23.8653 25.7928C25.6395 24.3384 27.0276 22.4689 27.9067 20.3499C28.7859 18.231 29.1289 15.9279 28.9054 13.6447C28.6819 11.3615 27.8988 9.16865 26.6255 7.26037C25.3521 5.3521 23.6278 3.78729 21.6053 2.70455C19.5827 1.62181 17.3244 1.05456 15.0303 1.05303C13.1986 1.05253 11.3848 1.41294 9.69244 2.11367C8.0001 2.81439 6.46239 3.8417 5.1672 5.13689C3.872 6.43209 2.84469 7.96979 2.14397 9.66214C1.44325 11.3545 1.08284 13.1683 1.08333 15C1.07706 16.8299 1.43183 18.643 2.12731 20.3355C2.82279 22.0281 3.84533 23.5668 5.13637 24.8636H5.15152Z" fill="white"/>
<path fill-rule="evenodd" clip-rule="evenodd" d="M19.0036 7.07952L16.6665 7.02648C16.211 7.01634 15.7581 7.0976 15.3346 7.26545C14.911 7.43331 14.5254 7.68436 14.2006 8.00376C13.8725 8.32092 13.6121 8.70125 13.435 9.1218C13.2579 9.54235 13.1679 9.99442 13.1703 10.4507V12.6628H10.9847C10.9415 12.6628 10.9 12.68 10.8695 12.7105C10.8389 12.7411 10.8218 12.7825 10.8218 12.8257V15.6098C10.8218 15.631 10.826 15.652 10.8342 15.6716C10.8425 15.6911 10.8545 15.7088 10.8697 15.7237C10.8849 15.7385 10.9029 15.7501 10.9226 15.7579C10.9424 15.7657 10.9634 15.7694 10.9847 15.7689H13.1551V22.8106C13.1551 22.8538 13.1723 22.8952 13.2028 22.9257C13.2334 22.9563 13.2748 22.9734 13.318 22.9734H16.1892C16.2324 22.9734 16.2738 22.9563 16.3044 22.9257C16.3349 22.8952 16.3521 22.8538 16.3521 22.8106V15.7689H18.5604C18.5999 15.7693 18.6383 15.7553 18.6682 15.7295C18.6982 15.7037 18.7178 15.6679 18.7233 15.6288L19.0831 12.8447C19.0865 12.8223 19.0849 12.7995 19.0784 12.7779C19.0718 12.7562 19.0605 12.7363 19.0453 12.7197C19.0301 12.7023 19.0115 12.6883 18.9906 12.6786C18.9697 12.6688 18.9471 12.6634 18.924 12.6628H16.3748V11.2575C16.3392 10.875 16.4442 10.4925 16.6703 10.1818C16.7584 10.0902 16.8653 10.0188 16.9837 9.97238C17.102 9.92597 17.229 9.90566 17.3559 9.91285H19.0074C19.0286 9.91336 19.0497 9.90962 19.0694 9.90185C19.0892 9.89408 19.1071 9.88243 19.1223 9.86761C19.1375 9.85278 19.1496 9.83508 19.1578 9.81553C19.166 9.79598 19.1703 9.77497 19.1703 9.75376V7.24239C19.1708 7.22053 19.1668 7.1988 19.1586 7.17854C19.1504 7.15828 19.138 7.13993 19.1224 7.12464C19.1068 7.10936 19.0881 7.09746 19.0677 7.0897C19.0473 7.08193 19.0254 7.07847 19.0036 7.07952Z" fill="white"/>
</svg>
