<svg width="30" height="30" viewBox="0 0 30 30" fill="none" xmlns="http://www.w3.org/2000/svg">
<path fill-rule="evenodd" clip-rule="evenodd" d="M15 30C11.0218 30 7.20645 28.4196 4.39341 25.6066C1.58036 22.7936 7.50044e-06 18.9782 7.50044e-06 15C-0.00385489 11.1352 1.48414 7.41812 4.15377 4.62357C6.82341 1.82903 10.4686 0.172741 14.3296 0H15C16.9698 0 18.9204 0.387988 20.7403 1.14181C22.5601 1.89563 24.2137 3.00052 25.6066 4.3934C26.9995 5.78628 28.1044 7.43986 28.8582 9.25975C29.612 11.0796 30 13.0302 30 15C30 16.9698 29.612 18.9204 28.8582 20.7403C28.1044 22.5601 26.9995 24.2137 25.6066 25.6066C24.2137 26.9995 22.5601 28.1044 20.7403 28.8582C18.9204 29.612 16.9698 30 15 30ZM5.15152 24.8636C6.77291 26.4866 8.76952 27.6847 10.9645 28.3517C13.1595 29.0188 15.4851 29.1343 17.7354 28.6879C19.9856 28.2416 22.0911 27.2472 23.8653 25.7928C25.6395 24.3384 27.0276 22.4689 27.9068 20.35C28.7859 18.231 29.1289 15.9279 28.9054 13.6447C28.6819 11.3615 27.8988 9.16865 26.6255 7.26037C25.3521 5.3521 23.6278 3.78729 21.6053 2.70455C19.5827 1.62181 17.3244 1.05456 15.0303 1.05303C13.1986 1.05253 11.3848 1.41294 9.69245 2.11367C8.0001 2.81439 6.4624 3.8417 5.16721 5.13689C3.87201 6.43209 2.8447 7.96979 2.14398 9.66214C1.44325 11.3545 1.08284 13.1683 1.08334 15C1.07707 16.8299 1.43183 18.643 2.12732 20.3355C2.8228 22.0281 3.84534 23.5668 5.13637 24.8636H5.15152Z" fill="white"/>
<path fill-rule="evenodd" clip-rule="evenodd" d="M18.0835 7.72339H11.9168C10.8053 7.72539 9.73994 8.1678 8.954 8.95374C8.16806 9.73968 7.72564 10.8051 7.72363 11.9166V18.0832C7.72564 19.1947 8.16806 20.2601 8.954 21.046C9.73994 21.832 10.8053 22.2744 11.9168 22.2764H18.0835C19.195 22.2744 20.2604 21.832 21.0463 21.046C21.8322 20.2601 22.2747 19.1947 22.2767 18.0832V11.9166C22.2747 10.8051 21.8322 9.73968 21.0463 8.95374C20.2604 8.1678 19.195 7.72539 18.0835 7.72339ZM20.7918 18.0832C20.7908 18.8012 20.5051 19.4895 19.9975 19.9972C19.4898 20.5049 18.8015 20.7906 18.0835 20.7916H11.9168C11.1988 20.7906 10.5105 20.5049 10.0028 19.9972C9.49515 19.4895 9.20948 18.8012 9.20848 18.0832V11.9166C9.20948 11.1986 9.49515 10.5103 10.0028 10.0026C10.5105 9.4949 11.1988 9.20923 11.9168 9.20823H18.0835C18.8015 9.20923 19.4898 9.4949 19.9975 10.0026C20.5051 10.5103 20.7908 11.1986 20.7918 11.9166V18.0832Z" fill="white"/>
<path fill-rule="evenodd" clip-rule="evenodd" d="M14.9999 11.6211C14.3316 11.6211 13.6784 11.8193 13.1227 12.1905C12.5671 12.5618 12.134 13.0895 11.8783 13.7069C11.6226 14.3243 11.5556 15.0036 11.686 15.6591C11.8164 16.3145 12.1382 16.9165 12.6107 17.389C13.0832 17.8616 13.6853 18.1834 14.3407 18.3137C14.9961 18.4441 15.6755 18.3772 16.2929 18.1215C16.9103 17.8657 17.438 17.4327 17.8092 16.877C18.1805 16.3214 18.3787 15.6681 18.3787 14.9999C18.3777 14.1041 18.0214 13.2453 17.3879 12.6118C16.7545 11.9784 15.8957 11.6221 14.9999 11.6211ZM14.9999 16.8256C14.6388 16.8256 14.2858 16.7186 13.9855 16.518C13.6853 16.3173 13.4513 16.0322 13.3131 15.6986C13.1749 15.365 13.1388 14.9979 13.2092 14.6437C13.2797 14.2895 13.4535 13.9642 13.7089 13.7089C13.9642 13.4535 14.2895 13.2797 14.6437 13.2092C14.9979 13.1388 15.365 13.1749 15.6986 13.3131C16.0322 13.4513 16.3173 13.6853 16.5179 13.9855C16.7186 14.2858 16.8256 14.6388 16.8256 14.9999C16.8256 15.4841 16.6333 15.9485 16.2909 16.2909C15.9485 16.6333 15.4841 16.8256 14.9999 16.8256Z" fill="white"/>
<path fill-rule="evenodd" clip-rule="evenodd" d="M18.7879 10.1553C18.5892 10.1545 18.3947 10.2128 18.2291 10.3226C18.0636 10.4324 17.9343 10.589 17.8578 10.7723C17.7812 10.9557 17.7608 11.1576 17.7991 11.3526C17.8374 11.5475 17.9327 11.7267 18.0729 11.8675C18.2132 12.0083 18.392 12.1042 18.5868 12.1433C18.7817 12.1823 18.9837 12.1627 19.1673 12.0868C19.351 12.0109 19.508 11.8823 19.6184 11.7171C19.7289 11.552 19.7879 11.3578 19.7879 11.1591C19.7879 10.8935 19.6826 10.6388 19.4952 10.4506C19.3078 10.2625 19.0534 10.1563 18.7879 10.1553Z" fill="white"/>
</svg>
