<svg width="30" height="30" viewBox="0 0 30 30" fill="none" xmlns="http://www.w3.org/2000/svg">
<path fill-rule="evenodd" clip-rule="evenodd" d="M15 30C13.0302 30 11.0796 29.612 9.25975 28.8582C7.43987 28.1044 5.78628 26.9995 4.3934 25.6066C3.00053 24.2137 1.89564 22.5601 1.14182 20.7402C0.387995 18.9204 7.50044e-06 16.9698 7.50044e-06 15C-0.00385489 11.1352 1.48414 7.41811 4.15377 4.62357C6.8234 1.82903 10.4686 0.172741 14.3295 0H15C16.9698 0 18.9204 0.387988 20.7403 1.14181C22.5601 1.89563 24.2137 3.00052 25.6066 4.3934C26.9995 5.78628 28.1044 7.43986 28.8582 9.25975C29.612 11.0796 30 13.0302 30 15C30 16.9698 29.612 18.9204 28.8582 20.7402C28.1044 22.5601 26.9995 24.2137 25.6066 25.6066C24.2137 26.9995 22.5601 28.1044 20.7403 28.8582C18.9204 29.612 16.9698 30 15 30ZM5.15152 24.8636C6.77291 26.4866 8.76952 27.6847 10.9645 28.3517C13.1595 29.0188 15.4851 29.1343 17.7354 28.6879C19.9856 28.2416 22.0911 27.2472 23.8653 25.7928C25.6395 24.3384 27.0276 22.4689 27.9067 20.3499C28.7859 18.231 29.1289 15.9279 28.9054 13.6447C28.6819 11.3615 27.8988 9.16865 26.6255 7.26037C25.3521 5.3521 23.6278 3.78729 21.6053 2.70455C19.5827 1.62181 17.3244 1.05456 15.0303 1.05303C13.1986 1.05253 11.3848 1.41294 9.69244 2.11367C8.0001 2.81439 6.46239 3.8417 5.1672 5.13689C3.872 6.43209 2.84469 7.96979 2.14397 9.66214C1.44325 11.3545 1.08284 13.1683 1.08333 15C1.07706 16.8299 1.43183 18.643 2.12731 20.3355C2.82279 22.0281 3.84533 23.5668 5.13637 24.8636H5.15152Z" fill="white"/>
<path fill-rule="evenodd" clip-rule="evenodd" d="M20.0039 8.80688H10.0001C9.13582 8.80688 8.30685 9.14997 7.69533 9.76078C7.08382 10.3716 6.73977 11.2002 6.73877 12.0645V17.9357C6.73977 18.8 7.08382 19.6285 7.69533 20.2394C8.30685 20.8502 9.13582 21.1932 10.0001 21.1932H20.0039C20.8679 21.1932 21.6965 20.85 22.3074 20.2391C22.9183 19.6282 23.2615 18.7996 23.2615 17.9357V12.0645C23.2615 11.2005 22.9183 10.3719 22.3074 9.76101C21.6965 9.1501 20.8679 8.80688 20.0039 8.80688ZM12.966 17.716V12.2842C12.9662 12.1864 12.9923 12.0905 13.0416 12.0061C13.0909 11.9217 13.1617 11.8519 13.2468 11.8038C13.3319 11.7557 13.4282 11.731 13.5259 11.7322C13.6236 11.7334 13.7193 11.7605 13.8032 11.8107L18.3486 14.5266C18.4311 14.5751 18.4995 14.6443 18.547 14.7273C18.5945 14.8104 18.6195 14.9044 18.6195 15.0001C18.6195 15.0957 18.5945 15.1898 18.547 15.2728C18.4995 15.3559 18.4311 15.4251 18.3486 15.4736L13.8032 18.1895C13.7195 18.2409 13.6236 18.269 13.5254 18.2709C13.4272 18.2727 13.3303 18.2481 13.2448 18.1998C13.1594 18.1514 13.0884 18.081 13.0394 17.996C12.9903 17.9109 12.965 17.8142 12.966 17.716Z" fill="white"/>
</svg>
