<svg width="30" height="30" viewBox="0 0 30 30" fill="none" xmlns="http://www.w3.org/2000/svg">
<path fill-rule="evenodd" clip-rule="evenodd" d="M15 30C11.0218 30 7.20645 28.4196 4.3934 25.6066C1.58036 22.7936 7.50044e-06 18.9782 7.50044e-06 15C-0.00385489 11.1352 1.48414 7.41812 4.15377 4.62357C6.82341 1.82903 10.4686 0.172741 14.3295 0V0H15C18.9783 0 22.7936 1.58035 25.6066 4.3934C28.4196 7.20644 30 11.0218 30 15C30 18.9782 28.4196 22.7936 25.6066 25.6066C22.7936 28.4196 18.9783 30 15 30ZM5.15152 24.8636C6.77336 26.4871 8.77063 27.6853 10.9663 28.3523C13.162 29.0193 15.4883 29.1343 17.7391 28.6872C19.9899 28.2401 22.0956 27.2447 23.8697 25.7892C25.6438 24.3337 27.0314 22.463 27.9097 20.343C28.7879 18.2229 29.1296 15.919 28.9045 13.6353C28.6794 11.3516 27.8944 9.15869 26.6192 7.25092C25.3439 5.34315 23.6177 3.77942 21.5936 2.6983C19.5695 1.61718 17.3099 1.05207 15.0152 1.05303C13.1822 1.05054 11.3667 1.40948 9.67264 2.10931C7.97854 2.80914 6.43905 3.83614 5.14225 5.13153C3.84545 6.42692 2.81679 7.96529 2.11512 9.65863C1.41345 11.352 1.05254 13.167 1.05304 15C1.05075 16.832 1.41029 18.6464 2.11101 20.339C2.81174 22.0317 3.83986 23.5693 5.13637 24.8636H5.15152Z" fill="white"/>
<path fill-rule="evenodd" clip-rule="evenodd" d="M19.0074 7.67414L7.81425 14.1363C7.61628 14.2497 7.45514 14.4177 7.35003 14.6203C7.24491 14.8228 7.20027 15.0513 7.22144 15.2785C7.2426 15.5057 7.32867 15.722 7.46937 15.9016C7.61008 16.0812 7.79949 16.2166 8.01501 16.2916L10.9847 17.3257L17.7006 12.0643L13.0415 18.0416V21.5188C13.0419 21.6003 13.0661 21.6798 13.1113 21.7476C13.1564 21.8154 13.2203 21.8685 13.2953 21.9004C13.3702 21.9322 13.4529 21.9414 13.533 21.9267C13.6131 21.9121 13.6872 21.8743 13.7461 21.8181L15.4923 20.1476L17.7195 22.1779C17.8844 22.3235 18.0864 22.4206 18.303 22.4586C18.5196 22.4966 18.7425 22.474 18.9471 22.3932C19.1517 22.3125 19.33 22.1768 19.4623 22.0011C19.5946 21.8254 19.6758 21.6165 19.6968 21.3976L20.7802 8.80671C20.7967 8.59145 20.7546 8.37572 20.6582 8.18253C20.5618 7.98933 20.4148 7.8259 20.2329 7.70967C20.0509 7.59343 19.8409 7.52873 19.6251 7.52247C19.4093 7.51622 19.1958 7.56863 19.0074 7.67414Z" fill="white"/>
</svg>
