<svg width="136" height="22" viewBox="0 0 136 22" fill="none" xmlns="http://www.w3.org/2000/svg">
<path d="M4.28965 15.3236H0.16748V16.1484C0.16748 18.0258 0.663665 19.467 1.65604 20.472C2.6675 21.477 4.33736 21.9796 6.66563 21.9796C8.89847 21.9796 10.6351 21.496 11.8756 20.5289C13.1351 19.5428 13.7649 17.9784 13.7649 15.8356C13.7649 15.2098 13.7077 14.6409 13.5932 14.1289C13.4787 13.6169 13.2687 13.1523 12.9634 12.7351C12.6771 12.299 12.2859 11.9007 11.7897 11.5404C11.2935 11.1612 10.6542 10.8009 9.87176 10.4596L6.69425 9.09422C5.81638 8.73392 5.24386 8.34518 4.97668 7.928C4.7095 7.49185 4.57591 6.96088 4.57591 6.33511C4.57591 6.0317 4.60454 5.73777 4.66179 5.45333C4.73813 5.16888 4.86217 4.92237 5.03393 4.71377C5.22477 4.48622 5.47287 4.30607 5.77821 4.17333C6.08356 4.04059 6.46524 3.97422 6.92326 3.97422C7.72479 3.97422 8.29732 4.2397 8.64084 4.77066C8.98435 5.28266 9.15611 6.02222 9.15611 6.98933H13.1065V6.42044C13.1065 5.45333 12.9443 4.62844 12.6199 3.94577C12.3145 3.24414 11.8756 2.67525 11.3031 2.23911C10.7496 1.784 10.0817 1.46162 9.29924 1.272C8.53587 1.0634 7.69617 0.959106 6.78013 0.959106C4.81447 0.959106 3.26865 1.45214 2.14269 2.43822C1.01672 3.42429 0.45374 4.92237 0.45374 6.93244C0.45374 7.76681 0.558703 8.50637 0.768628 9.15111C0.978554 9.77688 1.30299 10.3363 1.74192 10.8293C2.19994 11.3034 2.76292 11.7206 3.43087 12.0809C4.09881 12.4412 4.8908 12.773 5.80684 13.0764C6.49387 13.304 7.06639 13.5316 7.52441 13.7591C8.00152 13.9677 8.3832 14.2047 8.66946 14.4702C8.95572 14.7357 9.15611 15.0391 9.27061 15.3804C9.4042 15.7028 9.47099 16.0916 9.47099 16.5467C9.47099 17.4 9.21336 18.0353 8.69809 18.4524C8.2019 18.8507 7.63892 19.0498 7.00914 19.0498C6.47479 19.0498 6.02631 18.9739 5.66371 18.8222C5.32019 18.6705 5.04348 18.4619 4.83355 18.1964C4.62362 17.931 4.48049 17.6086 4.40416 17.2293C4.32782 16.8311 4.28965 16.395 4.28965 15.9209V15.3236ZM14.6109 1.35733L18.3323 21.6667H22.9411L25.2312 6.93244H25.2885L27.5786 21.6667H32.1874L35.9088 1.35733H31.9584L29.6969 16.376H29.6396L27.235 1.35733H23.2846L20.88 16.376H20.8228L18.5613 1.35733H14.6109ZM45.5898 14.0151L43.6146 4.88444H43.5573L41.5821 14.0151H45.5898ZM46.1337 1.35733L51.5441 21.6667H47.2501L46.3055 17.3715H40.8665L39.9218 21.6667H35.6279L41.0382 1.35733H46.1337ZM57.088 10.5449V4.37244H58.8056C59.8361 4.37244 60.5708 4.63792 61.0098 5.16888C61.4487 5.69985 61.6682 6.47733 61.6682 7.50133C61.6682 8.54429 61.4105 9.31229 60.8953 9.80533C60.3991 10.2984 59.7407 10.5449 58.9201 10.5449H57.088ZM52.9658 1.35733V21.6667H57.088V13.56H59.2922C60.2655 13.56 61.1529 13.4367 61.9544 13.1902C62.756 12.9437 63.4335 12.5739 63.9869 12.0809C64.5594 11.5878 64.9984 10.9526 65.3037 10.1751C65.6281 9.39763 65.7904 8.4874 65.7904 7.44444C65.7904 6.68592 65.6949 5.94637 65.5041 5.22577C65.3133 4.48622 64.9984 3.832 64.5594 3.26311C64.1205 2.69422 63.5384 2.23911 62.8132 1.89777C62.1071 1.53748 61.2292 1.35733 60.1796 1.35733H52.9658ZM76.541 8.21244H80.6632C80.6632 7.47288 80.6059 6.68592 80.4914 5.85155C80.396 4.99822 80.1383 4.21125 79.7185 3.49066C79.2986 2.75111 78.6593 2.14429 77.8005 1.67022C76.9608 1.19614 75.8062 0.959106 74.3368 0.959106C72.7909 0.959106 71.56 1.22459 70.644 1.75555C69.728 2.26755 69.0218 2.98814 68.5257 3.91733C68.0486 4.84651 67.7337 5.96533 67.581 7.27377C67.4474 8.56325 67.3806 9.976 67.3806 11.512C67.3806 13.067 67.4474 14.4892 67.581 15.7787C67.7337 17.0681 68.0486 18.1775 68.5257 19.1067C69.0218 20.0358 69.728 20.747 70.644 21.24C71.56 21.733 72.7909 21.9796 74.3368 21.9796C75.6917 21.9796 76.7891 21.771 77.6288 21.3538C78.4876 20.9366 79.146 20.3582 79.604 19.6187C80.0811 18.8791 80.4055 18.0163 80.5773 17.0302C80.749 16.0441 80.8349 15.0012 80.8349 13.9013H76.7127C76.7127 15.0012 76.646 15.8924 76.5124 16.5751C76.3788 17.2388 76.1975 17.7603 75.9685 18.1396C75.7395 18.4998 75.4627 18.7464 75.1383 18.8791C74.833 18.9929 74.499 19.0498 74.1364 19.0498C73.6974 19.0498 73.3062 18.9644 72.9627 18.7938C72.6383 18.6041 72.3616 18.2533 72.1325 17.7413C71.9226 17.2104 71.7604 16.4708 71.6459 15.5227C71.5505 14.5745 71.5028 13.3324 71.5028 11.7964C71.5028 10.3553 71.5409 9.14163 71.6173 8.15555C71.6936 7.15051 71.8272 6.34459 72.0181 5.73777C72.2089 5.112 72.4665 4.66637 72.791 4.40088C73.1345 4.11644 73.5639 3.97422 74.0791 3.97422C75.0143 3.97422 75.6536 4.31555 75.9971 4.99822C76.3597 5.66192 76.541 6.73333 76.541 8.21244ZM86.878 11.512C86.878 10.1467 86.9067 8.98992 86.9639 8.04177C87.0402 7.09362 87.1738 6.31614 87.3647 5.70933C87.5746 5.10251 87.8609 4.66637 88.2235 4.40088C88.6051 4.11644 89.1013 3.97422 89.712 3.97422C90.3227 3.97422 90.8094 4.11644 91.172 4.40088C91.5536 4.66637 91.8399 5.10251 92.0307 5.70933C92.2407 6.31614 92.3743 7.09362 92.4315 8.04177C92.5079 8.98992 92.546 10.1467 92.546 11.512C92.546 12.8773 92.5079 14.0436 92.4315 15.0107C92.3743 15.9588 92.2407 16.7363 92.0307 17.3431C91.8399 17.931 91.5536 18.3671 91.172 18.6516C90.8094 18.917 90.3227 19.0498 89.712 19.0498C89.1013 19.0498 88.6051 18.917 88.2235 18.6516C87.8609 18.3671 87.5746 17.931 87.3647 17.3431C87.1738 16.7363 87.0402 15.9588 86.9639 15.0107C86.9067 14.0436 86.878 12.8773 86.878 11.512ZM82.7559 11.512C82.7559 13.067 82.8226 14.4892 82.9562 15.7787C83.1089 17.0681 83.4238 18.1775 83.9009 19.1067C84.3971 20.0358 85.1032 20.747 86.0192 21.24C86.9353 21.733 88.1662 21.9796 89.712 21.9796C91.2578 21.9796 92.4888 21.733 93.4048 21.24C94.3208 20.747 95.0174 20.0358 95.4945 19.1067C95.9907 18.1775 96.3056 17.0681 96.4392 15.7787C96.5919 14.4892 96.6682 13.067 96.6682 11.512C96.6682 9.976 96.5919 8.56325 96.4392 7.27377C96.3056 5.96533 95.9907 4.84651 95.4945 3.91733C95.0174 2.98814 94.3208 2.26755 93.4048 1.75555C92.4888 1.22459 91.2578 0.959106 89.712 0.959106C88.1662 0.959106 86.9353 1.22459 86.0192 1.75555C85.1032 2.26755 84.3971 2.98814 83.9009 3.91733C83.4238 4.84651 83.1089 5.96533 82.9562 7.27377C82.8226 8.56325 82.7559 9.976 82.7559 11.512ZM99.2923 21.6667H103.414V1.35733H99.2923V21.6667ZM111.224 1.35733H106.472V21.6667H110.251V7.44444H110.308L115.346 21.6667H120.041V1.35733H116.262V15.2667H116.205L111.224 1.35733ZM126.23 15.3236H122.108V16.1484C122.108 18.0258 122.604 19.467 123.597 20.472C124.608 21.477 126.278 21.9796 128.606 21.9796C130.839 21.9796 132.576 21.496 133.816 20.5289C135.076 19.5428 135.706 17.9784 135.706 15.8356C135.706 15.2098 135.648 14.6409 135.534 14.1289C135.419 13.6169 135.209 13.1523 134.904 12.7351C134.618 12.299 134.227 11.9007 133.73 11.5404C133.234 11.1612 132.595 10.8009 131.813 10.4596L128.635 9.09422C127.757 8.73392 127.185 8.34518 126.917 7.928C126.65 7.49185 126.517 6.96088 126.517 6.33511C126.517 6.0317 126.545 5.73777 126.603 5.45333C126.679 5.16888 126.803 4.92237 126.975 4.71377C127.166 4.48622 127.414 4.30607 127.719 4.17333C128.024 4.04059 128.406 3.97422 128.864 3.97422C129.666 3.97422 130.238 4.2397 130.582 4.77066C130.925 5.28266 131.097 6.02222 131.097 6.98933H135.047V6.42044C135.047 5.45333 134.885 4.62844 134.561 3.94577C134.255 3.24414 133.816 2.67525 133.244 2.23911C132.69 1.784 132.022 1.46162 131.24 1.272C130.477 1.0634 129.637 0.959106 128.721 0.959106C126.755 0.959106 125.209 1.45214 124.083 2.43822C122.957 3.42429 122.395 4.92237 122.395 6.93244C122.395 7.76681 122.499 8.50637 122.709 9.15111C122.919 9.77688 123.244 10.3363 123.683 10.8293C124.141 11.3034 124.704 11.7206 125.372 12.0809C126.04 12.4412 126.832 12.773 127.748 13.0764C128.435 13.304 129.007 13.5316 129.465 13.7591C129.942 13.9677 130.324 14.2047 130.61 14.4702C130.896 14.7357 131.097 15.0391 131.211 15.3804C131.345 15.7028 131.412 16.0916 131.412 16.5467C131.412 17.4 131.154 18.0353 130.639 18.4524C130.143 18.8507 129.58 19.0498 128.95 19.0498C128.416 19.0498 127.967 18.9739 127.604 18.8222C127.261 18.6705 126.984 18.4619 126.774 18.1964C126.564 17.931 126.421 17.6086 126.345 17.2293C126.269 16.8311 126.23 16.395 126.23 15.9209V15.3236Z" fill="white"/>
</svg>
